<svg width="50" height="48" viewBox="0 0 50 48" fill="none" xmlns="http://www.w3.org/2000/svg">
<g id="ApplePay">
<g id="Rectangle">
<path fill-rule="evenodd" clip-rule="evenodd" d="M0.5 4C0.5 1.79086 2.29086 0 4.5 0H45.5C47.7091 0 49.5 1.79086 49.5 4V44C49.5 46.2091 47.7091 48 45.5 48H4.5C2.29086 48 0.5 46.2091 0.5 44V4Z" fill="white"/>
<path d="M1 4C1 2.067 2.567 0.5 4.5 0.5H45.5C47.433 0.5 49 2.067 49 4V44C49 45.933 47.433 47.5 45.5 47.5H4.5C2.567 47.5 1 45.933 1 44V4Z" stroke="#E4E4E4" stroke-opacity="0.6"/>
</g>
<g id="Apple Pay">
<path id="path2997" d="M15.7542 22.86C15.7768 25.1121 17.7555 25.8628 17.7781 25.8705C17.763 25.9244 17.4609 26.9369 16.7359 27.9878C16.1091 28.8925 15.4559 29.7972 14.4288 29.8164C13.4206 29.8357 13.0959 29.2274 11.9404 29.2274C10.785 29.2274 10.4263 29.8011 9.47094 29.8357C8.48164 29.8742 7.72644 28.854 7.09208 27.9532C5.79691 26.1053 4.80761 22.733 6.13675 20.454C6.79755 19.3222 7.97566 18.6061 9.25571 18.5907C10.2299 18.5715 11.1475 19.2375 11.7441 19.2375C12.3407 19.2375 13.4546 18.4367 14.6289 18.5561C15.1198 18.5753 16.498 18.7524 17.3854 20.0305C17.3137 20.0729 15.7391 20.9814 15.758 22.8639M13.8624 17.3357C14.3873 16.7082 14.7422 15.8305 14.6478 14.9604C13.8888 14.9912 12.9713 15.4609 12.4275 16.0884C11.9404 16.6466 11.5138 17.5359 11.627 18.3905C12.4729 18.456 13.3376 17.9671 13.8624 17.3357Z" fill="black"/>
<path id="path2995" d="M21.4686 16.2535C21.8575 16.188 22.288 16.1264 22.76 16.0725C23.232 16.0186 23.7493 15.9917 24.3119 15.9917C25.12 15.9917 25.8148 16.0879 26.4001 16.2843C26.9853 16.4768 27.4649 16.7578 27.8425 17.1158C28.1672 17.4353 28.4164 17.8165 28.5977 18.2592C28.7789 18.7019 28.8695 19.21 28.8695 19.7837C28.8695 20.4805 28.7449 21.0887 28.4957 21.6123C28.2465 22.1358 27.9067 22.5708 27.4762 22.9289C27.0457 23.283 26.536 23.5487 25.9432 23.7219C25.3503 23.8951 24.7046 23.9837 24.0061 23.9837C23.3755 23.9837 22.8431 23.9375 22.4126 23.8451V29.6273H21.4648V16.2535H21.4686ZM22.4164 22.9982C22.6467 23.0636 22.8997 23.1098 23.1829 23.1367C23.4661 23.1637 23.7682 23.1752 24.0892 23.1752C25.2975 23.1752 26.2377 22.8942 26.9023 22.3322C27.5668 21.7701 27.8991 20.9463 27.8991 19.8645C27.8991 19.3409 27.8123 18.8867 27.6386 18.4979C27.4649 18.109 27.2157 17.7934 26.8909 17.5431C26.57 17.2967 26.1848 17.1081 25.743 16.9811C25.2975 16.854 24.8104 16.7886 24.2704 16.7886C23.8399 16.7886 23.4699 16.804 23.1603 16.8386C22.8506 16.8733 22.6014 16.9079 22.4164 16.9503V22.9943V22.9982Z" fill="black"/>
<path id="path2998" d="M36.4064 27.3371C36.4064 27.7259 36.414 28.1147 36.4253 28.5035C36.4366 28.8923 36.4781 29.2658 36.5461 29.6276H35.6588L35.519 28.261H35.4775C35.3567 28.4496 35.2019 28.6344 35.0131 28.8231C34.8243 29.0117 34.6053 29.1811 34.3598 29.3351C34.1106 29.4891 33.8274 29.6122 33.514 29.7046C33.1968 29.797 32.8532 29.8432 32.4756 29.8432C32.0036 29.8432 31.592 29.7662 31.2333 29.6122C30.8784 29.4583 30.5838 29.2581 30.3573 29.0117C30.1269 28.7653 29.957 28.4804 29.8437 28.1571C29.7305 27.8375 29.6738 27.5142 29.6738 27.1946C29.6738 26.0551 30.1534 25.1812 31.1163 24.5653C32.0791 23.9493 33.5253 23.6568 35.4624 23.6837V23.4219C35.4624 23.1678 35.4398 22.8753 35.3907 22.548C35.3416 22.2208 35.2396 21.909 35.0773 21.6164C34.9149 21.3238 34.6732 21.0736 34.3523 20.8734C34.0313 20.6732 33.5933 20.5731 33.042 20.5731C32.6266 20.5731 32.2113 20.6386 31.8035 20.7656C31.3919 20.8927 31.0219 21.0698 30.6858 21.2969L30.3837 20.5924C30.8142 20.2998 31.256 20.0881 31.7129 19.961C32.1698 19.834 32.6455 19.7686 33.144 19.7686C33.8161 19.7686 34.3636 19.884 34.7865 20.1112C35.2094 20.3383 35.5417 20.6347 35.7834 20.9928C36.025 21.3546 36.1912 21.7589 36.278 22.2093C36.3649 22.6597 36.4102 23.1024 36.4102 23.5451V27.3409L36.4064 27.3371ZM35.4586 24.4652C34.9489 24.4498 34.4127 24.4729 33.8538 24.5268C33.295 24.5807 32.7815 24.6962 32.3132 24.8771C31.8412 25.058 31.4523 25.3237 31.1427 25.6701C30.8331 26.0166 30.6782 26.4786 30.6782 27.056C30.6782 27.7374 30.8746 28.2417 31.2635 28.5613C31.6524 28.8808 32.0905 29.0425 32.5738 29.0425C32.9627 29.0425 33.3139 28.9886 33.6235 28.8808C33.9331 28.773 34.2012 28.6306 34.4278 28.4496C34.6581 28.2687 34.8469 28.0647 35.0017 27.8375C35.1566 27.6104 35.2736 27.3756 35.3567 27.133C35.4246 26.8636 35.4586 26.6711 35.4586 26.5517V24.4652Z" fill="black"/>
<path id="path3000" d="M38.2603 19.9876L40.7184 26.2511C40.8544 26.5976 40.9828 26.9556 41.1036 27.3252C41.2244 27.6909 41.3301 28.0296 41.4245 28.3376H41.4661C41.5605 28.045 41.6662 27.714 41.787 27.3444C41.9079 26.9748 42.0438 26.5976 42.1911 26.2087L44.4906 19.9838H45.4988L42.6971 27.0518C42.4139 27.8025 42.1495 28.4801 41.9003 29.0883C41.6511 29.6966 41.3981 30.2471 41.1451 30.736C40.8884 31.2249 40.6316 31.6561 40.3673 32.0295C40.1067 32.4029 39.8122 32.734 39.4912 33.0112C39.1136 33.3461 38.77 33.5886 38.4528 33.7426C38.1357 33.8966 37.9242 33.9928 37.8185 34.0352L37.4937 33.2537C37.7354 33.1459 38.0035 33.0073 38.3018 32.8302C38.5963 32.657 38.8871 32.4299 39.1703 32.1488C39.4119 31.9063 39.6763 31.5906 39.967 31.1941C40.254 30.8014 40.5145 30.3202 40.7449 29.7582C40.8242 29.5426 40.8657 29.404 40.8657 29.3347C40.8657 29.2423 40.8242 29.0999 40.7449 28.9112L37.2559 19.9761H38.264L38.2603 19.9876Z" fill="black"/>
</g>
</g>
</svg>
