<svg width="81" height="67" viewBox="0 0 81 67" fill="none" xmlns="http://www.w3.org/2000/svg">
<path d="M11.7841 2.12549C12.6453 2.38197 13.4828 2.68095 14.1124 3.36701C14.8404 4.16007 15.2084 5.0916 15.2131 6.16003C15.2179 7.39525 15.2543 8.63047 15.1972 9.86255C15.1703 10.4684 15.3876 10.5549 15.93 10.5533C21.4033 10.5344 26.8783 10.5675 32.3516 10.5219C33.4999 10.5124 34.5102 11.1843 34.3786 12.5596C34.3247 13.1198 34.3738 13.6894 34.3691 14.2543C34.3596 15.3306 33.9884 15.8011 32.8544 16.1158C33.4888 17.0158 34.0487 17.9442 34.7418 18.7625C35.7315 19.9316 36.0312 21.2062 36.0233 22.7325C35.9646 33.6355 35.9884 44.5385 35.9995 55.4415C35.9995 56.1008 35.8282 56.6594 35.4428 57.1913C34.5705 58.3966 33.7267 59.6208 32.8655 60.845C34.0788 61.2447 34.3691 61.6397 34.3707 62.8639C34.3707 63.4492 34.3738 64.0361 34.3707 64.6215C34.3643 65.7906 33.7188 66.4263 32.5245 66.4263C25.8458 66.4279 19.1671 66.4263 12.4899 66.4263C9.5526 66.4263 6.61371 66.3823 3.67798 66.4484C2.47895 66.4751 1.48452 65.7843 1.62567 64.3745C1.67484 63.8772 1.63202 63.3705 1.6336 62.8686C1.63677 61.6318 1.92543 61.2368 3.14032 60.845C2.27911 59.6208 1.43535 58.3982 0.564623 57.196C0.17922 56.6641 0.00317204 56.1071 0.00475806 55.4478C0.0126882 44.1278 0.0126882 32.8062 0 21.4847C0 20.8474 0.15543 20.3202 0.537661 19.8041C1.42107 18.6082 2.26008 17.3793 3.14666 16.1189C2.63597 15.9946 2.20615 15.8199 1.91909 15.3998C1.62884 14.9702 1.62726 14.4966 1.63043 14.0135C1.6336 13.4282 1.62567 12.8412 1.63202 12.2559C1.64629 11.2063 2.30925 10.5581 3.38615 10.5455C4.04118 10.5376 4.69779 10.525 5.35123 10.5518C5.71285 10.5659 5.81594 10.4526 5.80959 10.097C5.78898 8.88381 5.79849 7.66904 5.80166 6.45585C5.80801 4.15692 6.80244 2.86033 9.04666 2.21518C9.0768 2.20574 9.09583 2.15696 9.1212 2.12549C10.0094 2.12549 10.8975 2.12549 11.7841 2.12549ZM27.6443 19.8356H33.1383C32.2533 18.5752 31.4476 17.4297 30.6451 16.281C30.5357 16.1252 30.3929 16.0827 30.2121 16.0843C28.5468 16.1 26.8815 16.1126 25.2146 16.1252C25.1305 16.1142 25.048 16.0906 24.964 16.0906C18.6056 16.089 12.2473 16.0906 5.88889 16.0812C5.60024 16.0812 5.42419 16.1771 5.26717 16.4084C4.77075 17.1354 4.24419 17.8419 3.75252 18.5736C3.48132 18.978 3.11653 19.3305 2.94524 19.8529H3.69226C9.54309 19.8529 15.3939 19.8545 21.2463 19.8529C23.3795 19.8529 25.5127 19.8419 27.6459 19.8356H27.6443ZM27.768 57.015C27.4302 57.0024 27.0892 57.0166 26.7578 56.9694C26.2201 56.8907 25.8252 56.4454 25.8886 55.9828C25.9647 55.4368 26.2915 55.1237 26.8688 55.1095C27.4175 55.0969 27.9663 55.0859 28.5151 55.0749C30.1201 55.0859 31.7252 55.0702 33.3286 55.1237C33.9297 55.1425 34.1058 54.9946 34.1042 54.3746C34.0836 43.7675 34.0899 33.1603 34.0899 22.5531C34.0899 22.4272 34.0804 22.3013 34.0899 22.177C34.1169 21.8513 33.9678 21.7333 33.6443 21.7364C31.9345 21.7569 30.2232 21.7663 28.5135 21.7789C28.4516 21.7695 28.3882 21.7506 28.3263 21.7506C24.2947 21.7474 20.263 21.7506 16.2313 21.738C15.8856 21.738 15.7666 21.8875 15.6572 22.177C15.1465 23.5334 14.8848 24.9512 14.5961 26.361C14.4645 27.0046 14.1505 27.3791 13.4653 27.3886C12.7167 27.0487 12.5692 26.7513 12.7246 25.9598C12.9673 24.7309 13.2195 23.5035 13.6207 22.3139C13.7619 21.8954 13.7349 21.7286 13.2195 21.738C11.6366 21.7663 10.0506 21.7648 8.46776 21.738C8.04588 21.7301 7.88569 21.8796 7.77309 22.2588C7.13392 24.3894 6.75328 26.5625 6.53282 28.7717C6.13156 32.7905 6.27747 36.7967 6.88967 40.7778C7.59704 45.3866 8.37577 49.9829 8.33454 54.6642C8.33137 55.0324 8.45349 55.1174 8.804 55.1126C10.2616 55.0953 11.7191 55.1048 13.1767 55.1048C14.455 55.1048 14.4486 55.1048 14.5803 53.8318C14.9514 50.2127 14.4867 46.6518 13.7524 43.1223C13.0799 39.8887 12.3202 36.6756 12.2695 33.3507C12.2568 32.5356 12.4138 32.3106 13.1893 32.1044C13.9364 32.2933 14.1505 32.5277 14.1743 33.3349C14.2107 34.6331 14.336 35.9218 14.5232 37.2058C14.9879 40.3907 15.9268 43.4874 16.2979 46.6911C16.604 49.3393 16.7753 51.9845 16.4153 54.6343C16.3535 55.089 16.5136 55.1142 16.8673 55.1095C17.9236 55.0953 18.9815 55.1001 20.0378 55.1063C20.8197 55.1111 21.2051 55.4195 21.213 56.0253C21.221 56.6201 20.8054 56.9694 20.0632 56.993C19.9157 56.9977 19.7666 56.993 19.6191 56.993C14.2504 56.993 8.88171 56.993 3.51304 56.993H2.76126C3.61771 58.2078 4.40438 59.2935 5.15139 60.406C5.40516 60.7852 5.69064 60.8954 6.13949 60.8938C12.2901 60.8781 18.4407 60.8844 24.5912 60.8828C24.8022 60.8828 25.0115 60.8623 25.2225 60.8513C26.8894 60.8623 28.5579 60.8686 30.2248 60.8906C30.5135 60.8938 30.6261 60.7176 30.7609 60.5272C31.4238 59.583 32.0931 58.6436 32.7513 57.6964C32.8957 57.4887 33.1177 57.3124 33.1304 57.0119H27.7728L27.768 57.015ZM1.91433 38.419C1.91433 43.7738 1.92067 49.1285 1.90322 54.4832C1.90322 54.9679 2.01583 55.1362 2.5297 55.1174C3.62723 55.078 4.72793 55.0749 5.82387 55.1174C6.35518 55.1394 6.444 54.9427 6.44717 54.4738C6.46145 51.6225 6.13473 48.8012 5.74932 45.9846C5.35916 43.1286 4.78978 40.2947 4.57567 37.4198C4.19661 32.3074 4.34252 27.2265 5.78898 22.2541C5.9 21.8733 5.81752 21.7254 5.39088 21.7364C4.46148 21.76 3.53048 21.7773 2.60266 21.7301C2.04755 21.7018 1.89529 21.8544 1.89688 22.4178C1.92067 27.752 1.91115 33.0847 1.91115 38.419H1.91433ZM17.9997 12.4337V12.4306H4.62008C3.53683 12.4306 3.56855 12.4306 3.52255 13.5021C3.49876 14.0623 3.64468 14.2197 4.2315 14.2181C13.2353 14.1961 22.2392 14.2008 31.243 14.1992C32.4643 14.1992 32.4405 14.1992 32.4706 13.008C32.4817 12.5423 32.3643 12.4211 31.8854 12.4227C27.2573 12.4431 22.6278 12.4353 17.9997 12.4353V12.4337ZM17.9506 64.5412V64.5381C22.4533 64.5381 26.956 64.5381 31.4571 64.5381C32.4595 64.5381 32.423 64.5365 32.4738 63.5153C32.5039 62.9315 32.3754 62.7569 31.7394 62.7584C22.734 62.782 13.7302 62.7726 4.72476 62.771C3.53365 62.771 3.56855 62.771 3.52097 63.9244C3.49718 64.4752 3.68591 64.5554 4.18868 64.5538C8.77545 64.5334 13.3622 64.5428 17.949 64.5428L17.9506 64.5412ZM10.4995 10.5423C11.2814 10.5423 12.0649 10.5266 12.8452 10.5486C13.202 10.5581 13.3194 10.4495 13.3146 10.0891C13.2956 8.75006 13.3257 7.40941 13.2988 6.07034C13.2766 4.90435 12.4281 4.07038 11.2481 4.0153C10.7627 3.99327 10.2758 3.99485 9.79051 4.0153C8.5772 4.06565 7.73502 4.90749 7.71758 6.1081C7.69854 7.42672 7.72709 8.74534 7.7033 10.064C7.69537 10.4668 7.84129 10.5612 8.21559 10.5486C8.97529 10.525 9.73658 10.5407 10.4979 10.5407L10.4995 10.5423Z" fill="#030202"/>
<path d="M28.5144 55.0736C27.9657 55.0846 27.4169 55.0956 26.8681 55.1082C26.2908 55.1224 25.9625 55.4355 25.888 55.9815C25.8245 56.4441 26.2194 56.8894 26.7571 56.9681C27.0886 57.0169 27.4312 57.0012 27.7674 57.0138C27.7135 57.3159 27.4883 57.5173 27.3281 57.758C26.6334 58.795 25.8229 59.7564 25.2155 60.8532C25.0046 60.8642 24.7952 60.8846 24.5843 60.8846C18.4337 60.8862 12.2831 60.8815 6.1325 60.8957C5.68524 60.8957 5.39975 60.7871 5.14441 60.4079C4.39898 59.2954 3.61072 58.2112 2.75427 56.9949H3.50605C8.87472 56.9949 14.2434 56.9949 19.6121 56.9949C19.7596 56.9949 19.9087 56.998 20.0562 56.9949C20.7984 56.9713 21.214 56.6219 21.206 56.0271C21.1981 55.4213 20.8127 55.1129 20.0308 55.1082C18.9745 55.1019 17.9166 55.0972 16.8603 55.1114C16.5051 55.1161 16.3465 55.0909 16.4083 54.6361C16.7683 51.9847 16.5971 49.3396 16.291 46.693C15.9198 43.4877 14.9809 40.3925 14.5162 37.2077C14.329 35.9237 14.2038 34.635 14.1673 33.3368C14.1435 32.5296 13.931 32.2951 13.1824 32.1063C13.1617 30.528 13.2997 28.9577 13.4615 27.3889C14.1482 27.3794 14.4607 27.0065 14.5923 26.3613C14.881 24.9514 15.1427 23.5337 15.6534 22.1773C15.7628 21.8878 15.8818 21.7367 16.2275 21.7383C20.2592 21.7509 24.2908 21.7477 28.3225 21.7509C28.3844 21.7509 28.4478 21.7698 28.5097 21.7792C28.5128 22.6777 28.5208 23.5762 28.5208 24.4747C28.5176 34.6743 28.5144 44.8739 28.5112 55.0736H28.5144Z" fill="black"/>
<path d="M13.4614 27.3876C13.2997 28.9565 13.1633 30.5253 13.1823 32.1051C12.4051 32.3112 12.2497 32.5362 12.2624 33.3513C12.3131 36.6746 13.0728 39.8894 13.7453 43.123C14.4797 46.6508 14.9459 50.2133 14.5732 53.8324C14.4432 55.1039 14.4479 55.1054 13.1696 55.1054C11.712 55.1054 10.2545 55.096 8.79694 55.1133C8.44643 55.118 8.3243 55.033 8.32748 54.6648C8.36871 49.9836 7.58998 45.3857 6.88261 40.7784C6.27041 36.7974 6.12449 32.7912 6.52576 28.7724C6.74621 26.5647 7.12844 24.3901 7.76603 22.2595C7.88022 21.8803 8.03882 21.7308 8.4607 21.7387C10.0451 21.767 11.6296 21.7686 13.2124 21.7387C13.7279 21.7292 13.7548 21.896 13.6137 22.3146C13.2124 23.5042 12.9618 24.7315 12.7176 25.9604C12.5606 26.7504 12.7097 27.0478 13.4583 27.3892L13.4614 27.3876Z" fill="#F9F9F9"/>
<path d="M28.5152 55.0736C28.5184 44.8739 28.5215 34.6743 28.5247 24.4747C28.5247 23.5762 28.5168 22.6777 28.5136 21.7792C30.2233 21.7666 31.9347 21.7572 33.6444 21.7367C33.9695 21.732 34.117 21.8516 34.0901 22.1773C34.0805 22.3016 34.0901 22.4275 34.0901 22.5534C34.0901 33.1606 34.0837 43.7677 34.1043 54.3749C34.1043 54.9949 33.9299 55.1428 33.3288 55.1239C31.7253 55.072 30.1202 55.0877 28.5152 55.0751V55.0736Z" fill="#C01610"/>
<path d="M1.91453 38.4192C1.91453 33.0849 1.92405 27.7522 1.90026 22.4179C1.89708 21.8546 2.05093 21.7019 2.60603 21.7303C3.53386 21.7775 4.46485 21.7586 5.39426 21.7366C5.81931 21.7256 5.90337 21.8735 5.79235 22.2543C4.3459 27.2266 4.1984 32.3076 4.57904 37.42C4.79157 40.2948 5.36254 43.1303 5.7527 45.9847C6.13652 48.8013 6.46482 51.6243 6.45055 54.4739C6.44738 54.9428 6.35856 55.138 5.82724 55.1175C4.7313 55.0734 3.6306 55.0766 2.53308 55.1175C2.01762 55.1364 1.90501 54.968 1.9066 54.4834C1.92246 49.1286 1.9177 43.7739 1.9177 38.4192H1.91453Z" fill="black"/>
<path d="M27.647 19.8357C25.5138 19.842 23.3806 19.8531 21.2474 19.8531C15.3966 19.8562 9.54578 19.8531 3.69337 19.8531H2.94635C3.11764 19.3306 3.48243 18.9766 3.75363 18.5738C4.2453 17.8437 4.77345 17.1371 5.26828 16.4086C5.42689 16.1773 5.60293 16.0813 5.89 16.0813C12.2484 16.0892 18.6067 16.0876 24.9651 16.0907C25.0491 16.0907 25.1316 16.1128 25.2157 16.1254C25.5551 16.7878 26.0499 17.3496 26.4512 17.9727C26.8508 18.5927 27.398 19.1198 27.647 19.8342V19.8357Z" fill="black"/>
<path d="M17.9988 12.4341C22.6268 12.4341 27.2564 12.442 31.8844 12.4215C32.3634 12.42 32.4823 12.5395 32.4696 13.0069C32.4395 14.1965 32.4649 14.198 31.242 14.198C22.2382 14.198 13.2344 14.1949 4.23053 14.2169C3.6437 14.2169 3.49779 14.0611 3.52158 13.501C3.56757 12.431 3.53427 12.4294 4.61911 12.4294H17.9988V12.4325V12.4341Z" fill="#E0E6EB"/>
<path d="M17.9489 64.5411C13.3622 64.5411 8.77539 64.5332 4.18862 64.5521C3.68744 64.5537 3.4987 64.475 3.5209 63.9227C3.56848 62.7709 3.53359 62.7693 4.72469 62.7693C13.7301 62.7693 22.734 62.7803 31.7394 62.7567C32.3754 62.7552 32.5023 62.9298 32.4737 63.5136C32.423 64.5348 32.4594 64.5364 31.4571 64.5364C26.9544 64.5364 22.4516 64.5364 17.9505 64.5364V64.5395L17.9489 64.5411Z" fill="#E0E6EB"/>
<path d="M25.2173 60.8526C25.8248 59.7559 26.6352 58.796 27.3299 57.7575C27.4901 57.5183 27.7169 57.3153 27.7693 57.0132C29.5424 57.0132 31.3156 57.0132 33.1268 57.0132C33.1141 57.3137 32.8921 57.49 32.7478 57.6977C32.0896 58.6449 31.4187 59.5828 30.7573 60.5285C30.6241 60.7189 30.5099 60.8967 30.2212 60.8919C28.5543 60.8699 26.8858 60.8636 25.2189 60.8526H25.2173Z" fill="black"/>
<path d="M27.6419 19.8353C27.3929 19.121 26.8457 18.5938 26.446 17.9739C26.0448 17.3507 25.5515 16.789 25.2105 16.1265C26.8758 16.1139 28.5412 16.1013 30.2081 16.0856C30.3889 16.084 30.5332 16.1265 30.641 16.2823C31.4436 17.431 32.2493 18.5765 33.1343 19.8369H27.6403L27.6419 19.8353Z" fill="#C01610"/>
<path d="M10.4987 10.5416C9.73738 10.5416 8.97609 10.5243 8.21639 10.5495C7.84209 10.5621 7.69617 10.4661 7.7041 10.0649C7.72948 8.74624 7.70093 7.42762 7.71838 6.109C7.73582 4.90839 8.578 4.06655 9.7913 4.0162C10.2766 3.99574 10.7635 3.99574 11.2489 4.0162C12.4289 4.0697 13.2774 4.90524 13.2996 6.07123C13.325 7.41031 13.2948 8.75096 13.3154 10.09C13.3202 10.4504 13.2028 10.5589 12.846 10.5495C12.0641 10.5275 11.2822 10.5432 10.5003 10.5432L10.4987 10.5416ZM12.7096 6.88789C12.7096 5.67627 11.7247 4.67236 10.5225 4.6582C9.30915 4.64404 8.23859 5.69201 8.24811 6.88475C8.25762 8.07276 9.27585 9.09871 10.4606 9.11602C11.6961 9.13333 12.7096 8.12784 12.7096 6.88789Z" fill="#6A747F"/>
<path d="M12.7073 6.88841C12.7073 8.12993 11.6938 9.13541 10.4583 9.11653C9.27195 9.09922 8.25372 8.07328 8.24579 6.88526C8.23627 5.69095 9.30684 4.64455 10.5201 4.65871C11.7223 4.67287 12.7057 5.67521 12.7073 6.88841ZM10.5106 7.18266C10.72 7.17007 10.8009 7.04576 10.7914 6.85379C10.7818 6.67755 10.6613 6.59258 10.5043 6.58944C10.314 6.58629 10.1823 6.69958 10.1871 6.89156C10.1903 7.08038 10.3108 7.18895 10.5122 7.18266H10.5106Z" fill="#030202"/>
<path d="M33.7457 66.2882C33.7001 66.0892 33.5052 66.1203 33.377 66.0823C30.2009 65.1324 28.4311 62.8121 28.4259 59.5143C28.4153 51.9636 28.4153 44.4129 28.4347 36.8622C28.4347 36.2514 28.3785 36.094 27.6744 36.2151C25.2287 36.6338 23.1183 34.8724 23.0463 32.3895C22.9971 30.7078 23.0252 29.0243 23.0358 27.3425C23.0604 23.5464 22.9041 19.745 23.1007 15.9541C23.3659 10.8344 27.5392 6.30117 32.6554 5.44298C33.2998 5.33571 33.9652 5.2094 34.6078 5.25439C35.361 5.30802 35.7578 4.99831 36.2003 4.44118C40.3526 -0.778917 48.0199 -1.50042 53.1045 2.82515C53.3959 3.0743 53.6224 3.15908 54.0245 3.03277C56.7072 2.18496 59.5147 3.06392 61.2265 5.27169C61.467 5.5814 61.6391 5.69386 62.064 5.57275C65.0909 4.71975 68.195 6.0053 69.6733 8.68543C71.1323 11.3292 70.5389 14.544 68.1897 16.6203C67.9387 16.8435 67.8228 17.0563 67.8298 17.3902C67.8491 18.3609 67.8667 19.3332 67.8245 20.3022C67.8035 20.7866 67.9861 20.8524 68.4162 20.8472C70.3212 20.8247 72.2244 20.8351 74.1294 20.8385C78.0745 20.8472 80.9293 23.5204 80.9592 27.4117C81.0136 34.7253 81.0136 42.039 80.9592 49.351C80.9311 53.2422 78.0745 55.9189 74.1311 55.9276C72.249 55.931 70.3651 55.9535 68.4847 55.912C67.9123 55.8999 67.8105 56.0746 67.8245 56.592C67.8579 57.7772 67.8684 58.9676 67.8 60.1493C67.6191 63.2533 65.4789 65.5995 62.3765 66.167C62.3291 66.1757 62.2922 66.2449 62.2518 66.2847H33.7457V66.2882ZM74.4507 50.7749C72.946 50.768 71.4413 50.7473 69.9384 50.7576C69.2467 50.7628 68.267 50.4566 67.9404 50.8805C67.591 51.3321 67.8632 52.2404 67.8368 52.9498C67.8245 53.2613 67.9193 53.3512 68.2389 53.3478C70.3107 53.3253 72.3807 53.3236 74.4524 53.3149C74.6473 53.3063 74.8457 53.3201 75.0371 53.2855C77.0843 52.9187 78.3396 51.3736 78.3431 49.1849C78.3502 42.7484 78.3466 36.3102 78.3431 29.8738C78.3431 29.597 78.3221 29.3184 78.3115 29.0416C78.3765 28.3322 78.3747 27.621 78.308 26.9134C78.1324 25.0257 76.5347 23.4927 74.6122 23.4512C72.493 23.4045 70.3703 23.4477 68.2512 23.4252C67.8649 23.4218 67.8298 23.5792 67.8386 23.8786C67.8544 24.4167 67.8684 24.9582 67.8351 25.4946C67.8087 25.9047 67.9211 26.0396 68.3635 26.0327C70.3089 26.0067 72.2542 26.0171 74.2014 26.024C75.2021 26.0275 75.6393 26.4549 75.6604 27.4151C75.6621 27.5172 75.7025 27.6193 75.7253 27.7197C75.7253 34.8326 75.7271 41.9439 75.7253 49.0568C75.7253 50.1642 75.4637 50.5085 74.4507 50.7784V50.7749ZM42.4261 63.679C48.7643 63.6842 55.1007 63.7101 61.4372 63.6772C62.9506 63.6686 64.0638 62.8606 64.7836 61.5387C64.9627 61.2117 64.9328 61.0888 64.522 61.0957C63.4949 61.113 62.4678 61.1044 61.4407 61.0992C60.4768 61.094 60.073 60.7601 59.8658 59.8136C60.0695 58.862 60.4733 58.5229 61.4337 58.5177C62.4186 58.5125 63.4054 58.4762 64.3886 58.5316C65.0259 58.5662 65.2208 58.4208 65.219 57.7443C65.1945 44.7987 65.2015 31.8532 65.2015 18.9093C65.2015 18.8021 65.1909 18.6931 65.2032 18.5858C65.2454 18.2207 65.126 18.0702 64.7274 18.1636C64.1902 18.2899 63.6283 18.3072 63.0981 18.1861C62.5415 18.0581 62.4432 18.2328 62.4485 18.745C62.4713 21.4856 62.4538 24.2246 62.4608 26.9653C62.4643 28.5606 61.848 29.834 60.4066 30.604C59.9431 30.8514 59.8201 31.1092 59.8219 31.5919C59.8377 38.1945 59.8324 44.7953 59.8289 51.3978C59.8289 51.6764 59.8272 51.9619 59.7727 52.2352C59.6516 52.8443 59.1319 53.2388 58.5033 53.2371C57.8766 53.2353 57.3604 52.8356 57.2427 52.2249C57.1901 51.9515 57.1901 51.6677 57.1901 51.3874C57.1865 46.1016 57.1883 40.8158 57.1883 35.5299C57.1883 34.1492 57.1883 32.7685 57.1883 31.3877C57.1883 31.1334 57.2129 30.9119 56.8898 30.7579C55.2342 29.9655 54.5407 28.6125 54.5547 26.8269C54.5705 24.8423 54.5512 22.8577 54.502 20.8731C54.4739 19.7675 53.8735 19.0235 52.813 18.6463C52.0633 18.3799 51.2838 18.302 50.4954 18.257C50.118 18.2346 49.8335 18.3349 49.5614 18.6048C49.0189 19.1429 48.3886 19.5737 47.6986 19.9129C45.5601 20.9683 43.3707 20.9735 41.1479 20.2087C40.2174 19.7675 39.3536 19.2329 38.5951 18.5339C38.2404 18.2069 37.9648 18.1429 37.654 18.6931C36.3407 21.0133 34.3515 22.5082 31.7161 23.0965C31.1771 23.2176 31.0437 23.4079 31.0454 23.9339C31.063 35.2358 31.0577 46.5376 31.0577 57.8412C31.0577 57.9277 31.0683 58.0159 31.056 58.099C31.0015 58.4433 31.1525 58.5281 31.4914 58.5264C34.7079 58.5091 37.9244 58.5073 41.1409 58.5004C44.2257 58.5056 47.3105 58.5108 50.3971 58.5194C51.4242 58.5212 51.8175 58.8378 52.03 59.8154C51.8158 60.7912 51.419 61.1079 50.3971 61.1113C47.4229 61.12 44.4505 61.1286 41.4762 61.1355H31.3527C31.818 62.5976 33.2541 63.6703 34.8325 63.6859C37.3643 63.7118 39.8978 63.6859 42.4296 63.6807L42.4261 63.679ZM67.3435 13.5906C68.1827 12.0542 67.9123 10.2305 66.6622 9.0159C65.4104 7.79955 63.5669 7.54521 62.0043 8.37572C60.7331 9.0505 60.2099 8.87748 59.6042 7.58154C58.6842 5.61081 56.3175 4.75262 54.3546 5.67829C53.0816 6.27868 52.9271 6.251 51.9123 5.25439C47.7776 1.19527 40.9899 1.84757 37.8173 6.67663C37.1729 7.65767 36.4917 7.94489 35.3452 7.86184C29.9165 7.46908 25.2059 12.2116 25.708 17.4871C25.694 17.5926 25.6694 17.6982 25.6694 17.8037C25.6694 22.5515 25.6694 27.2975 25.6694 32.0452C25.6694 32.1958 25.6694 32.348 25.6887 32.4968C25.773 33.1681 26.2804 33.637 26.9528 33.6716C27.6235 33.7062 28.2064 33.2979 28.3521 32.6491C28.4136 32.3792 28.4153 32.0919 28.4171 31.8134C28.4206 28.6626 28.4171 25.5119 28.4224 22.3611C28.4241 21.304 28.835 20.7832 29.7831 20.7399C32.457 20.6171 34.3427 19.3402 35.591 17.0407C36.1932 15.9316 37.3415 15.4714 38.6004 15.7223C39.4027 15.8814 40.0383 16.3071 40.637 16.8313C42.6895 18.6256 45.6865 18.6169 47.6722 16.7656C48.5448 15.9524 49.5087 15.5735 50.6974 15.66C51.4418 15.7153 52.1827 15.7794 52.9043 15.9593C55.1587 16.5216 56.6739 17.8279 57.0707 20.1638C57.1918 20.8818 57.1866 21.6258 57.1936 22.3577C57.2111 23.9754 57.1866 25.5949 57.2111 27.2127C57.2217 27.91 57.6746 28.3962 58.2892 28.4844C58.9089 28.5744 59.5322 28.2526 59.7113 27.6954C59.8008 27.4151 59.8114 27.1002 59.8114 26.8009C59.8184 23.4996 59.8149 20.1984 59.8149 16.8971C59.8149 16.7033 59.8061 16.5078 59.8201 16.314C59.8939 15.2707 60.7384 14.7464 61.7163 15.134C61.8989 15.2067 62.0728 15.2984 62.2571 15.3658C64.2604 16.1012 66.2672 15.3987 67.3382 13.5906H67.3435ZM67.8421 38.3848C67.8421 41.468 67.8509 44.5513 67.8333 47.6346C67.8316 48.0498 67.9299 48.1779 68.3671 48.1692C69.7892 48.1398 71.2113 48.145 72.6335 48.1675C73.011 48.1727 73.1005 48.0602 73.1005 47.6986C73.09 41.4888 73.09 35.279 73.1005 29.0692C73.1005 28.7059 73.011 28.5952 72.6335 28.6003C71.2342 28.6228 69.8331 28.635 68.4338 28.5952C67.9316 28.5813 67.828 28.7232 67.8316 29.199C67.8544 32.2598 67.8439 35.3223 67.8439 38.3848H67.8421Z" fill="#0A1A00"/>
<path d="M41.1481 20.206C43.3709 20.9707 45.5603 20.9655 47.6987 19.9101C48.3888 19.5692 49.0191 19.1384 49.5616 18.602C49.8337 18.3321 50.1181 18.2318 50.4956 18.2543C51.284 18.301 52.0635 18.3788 52.8132 18.6436C53.8737 19.0208 54.4759 19.7648 54.5022 20.8704C54.5514 22.8532 54.5707 24.8395 54.5549 26.8241C54.5408 28.6097 55.2344 29.961 56.89 30.7552C57.2148 30.9109 57.1885 31.1324 57.1885 31.385C57.1885 32.7657 57.1885 34.1464 57.1885 35.5271C57.1885 40.813 57.1885 46.0988 57.1902 51.3847C57.1902 51.6632 57.1902 51.9487 57.2429 52.2221C57.3606 52.8329 57.8767 53.2325 58.5035 53.2343C59.1321 53.236 59.6518 52.8415 59.7729 52.2325C59.8274 51.9608 59.8291 51.6753 59.8291 51.395C59.8326 44.7925 59.8361 38.1917 59.8221 31.5891C59.8221 31.1064 59.9432 30.8486 60.4067 30.6012C61.8482 29.8312 62.4645 28.5595 62.461 26.9625C62.4539 24.2218 62.4715 21.4829 62.4487 18.7422C62.4452 18.23 62.5435 18.0553 63.0983 18.1833C63.6285 18.3044 64.1904 18.2871 64.7276 18.1608C65.1262 18.0674 65.2456 18.2179 65.2034 18.583C65.1911 18.6903 65.2017 18.7993 65.2017 18.9066C65.2017 31.8521 65.1946 44.7977 65.2192 57.7415C65.2192 58.4198 65.0261 58.5651 64.3888 58.5288C63.4073 58.4751 62.4188 58.5097 61.4339 58.5149C60.4735 58.5201 60.0696 58.8592 59.866 59.8109C59.0039 59.8109 58.1419 59.8109 57.2798 59.8091C57.1481 58.9198 56.6688 58.4198 55.9454 58.4198C55.2256 58.4198 54.7428 58.9233 54.6128 59.8109C53.7508 59.8109 52.8887 59.8109 52.0266 59.8109C51.8142 58.8333 51.4191 58.5167 50.3938 58.5149C47.309 58.508 44.2242 58.5028 41.1376 58.4959C41.1393 45.7303 41.1428 32.9664 41.1446 20.2008L41.1481 20.206ZM46.6804 39.6191C46.6804 43.5433 46.6804 47.4674 46.6804 51.3933C46.6804 51.6511 46.6804 51.9141 46.7226 52.1667C46.8455 52.8882 47.4582 53.3173 48.1956 53.2239C48.9488 53.1287 49.3193 52.5733 49.321 51.5248C49.321 43.5675 49.321 35.6119 49.321 27.6546C49.321 26.5472 48.84 25.9244 48.0007 25.9244C47.1615 25.9244 46.6839 26.549 46.6787 27.6546C46.6787 27.7619 46.6787 27.8709 46.6787 27.9781C46.6787 31.859 46.6787 35.7399 46.6787 39.6226L46.6804 39.6191Z" fill="#FDC552"/>
<path d="M67.3464 13.5904C66.2754 15.3968 64.2686 16.0993 62.2653 15.3657C62.081 15.2982 61.9072 15.2065 61.7246 15.1338C60.7466 14.7462 59.9021 15.2722 59.8284 16.3138C59.8143 16.5076 59.8231 16.7014 59.8231 16.8969C59.8231 20.1982 59.8249 23.4995 59.8196 26.8007C59.8196 27.1001 59.8091 27.4132 59.7195 27.6953C59.5404 28.2524 58.9154 28.5742 58.2974 28.4842C57.6829 28.396 57.2299 27.9098 57.2194 27.2125C57.193 25.5948 57.2194 23.9753 57.2018 22.3575C57.193 21.6256 57.2 20.8816 57.0789 20.1636C56.6821 17.8278 55.1687 16.5215 52.9125 15.9591C52.1909 15.7792 51.4483 15.7152 50.7056 15.6598C49.517 15.5716 48.5531 15.9505 47.6805 16.7654C45.693 18.6168 42.6977 18.6254 40.6452 16.8312C40.0448 16.3069 39.4109 15.883 38.6086 15.7221C37.3497 15.4712 36.2032 15.9297 35.5992 17.0405C34.3509 19.34 32.4653 20.6169 29.7913 20.7397C28.8432 20.783 28.4323 21.3038 28.4306 22.361C28.4253 25.5117 28.4306 28.6625 28.4253 31.8132C28.4253 32.0918 28.4218 32.379 28.3604 32.6489C28.2129 33.2977 27.6317 33.7061 26.961 33.6715C26.2886 33.6369 25.7812 33.168 25.6969 32.4966C25.6776 32.3478 25.6776 32.1956 25.6776 32.0451C25.6776 27.2973 25.6758 22.5513 25.6776 17.8036C25.6776 17.698 25.7022 17.5925 25.7162 17.4869C26.6503 16.2135 27.6546 14.9989 29.0012 14.1234C31.0203 12.8101 33.2413 12.2357 35.6572 12.4243C36.0926 12.4589 36.3367 12.3205 36.5965 11.9363C38.5436 9.06244 41.2668 7.36855 44.7782 7.14016C47.8156 6.94291 50.4949 7.92914 52.686 10.0556C53.0618 10.4207 53.3497 10.5366 53.8764 10.3013C56.503 9.12646 59.4281 10.2234 60.7045 12.7374C60.9011 13.125 61.0662 13.2167 61.4963 13.0143C62.555 12.5142 63.6541 12.3135 64.8586 12.5212C65.8031 12.6838 66.5476 13.1787 67.3499 13.5922L67.3464 13.5904Z" fill="#FDE4CA"/>
<path d="M41.144 20.2047C41.1422 32.9703 41.1387 45.7342 41.137 58.4998C37.9205 58.5067 34.704 58.5067 31.4875 58.5258C31.1486 58.5275 30.9994 58.441 31.052 58.0984C31.0661 58.0136 31.0538 57.9254 31.0538 57.8406C31.0538 46.5388 31.0573 35.2369 31.0415 23.9333C31.0415 23.4074 31.1732 23.217 31.7122 23.0959C34.3493 22.5059 36.3368 21.011 37.6501 18.6925C37.9626 18.1423 38.2365 18.2063 38.5912 18.5333C39.3496 19.2323 40.2135 19.767 41.144 20.2082V20.2047ZM38.8089 39.5244C38.8089 35.5985 38.8089 31.6744 38.8071 27.7485C38.8071 27.4699 38.8036 27.1844 38.7474 26.9128C38.6245 26.3262 38.0574 25.9041 37.4587 25.9214C36.8793 25.9369 36.3473 26.3435 36.2315 26.9059C36.1718 27.1983 36.17 27.5063 36.17 27.8056C36.1665 35.6556 36.1665 43.5074 36.17 51.3574C36.17 51.6152 36.1665 51.8765 36.2051 52.1309C36.3192 52.8818 36.9531 53.3316 37.715 53.2192C38.4209 53.1154 38.8071 52.5651 38.8089 51.6239C38.8124 47.5907 38.8089 43.5576 38.8089 39.5244Z" fill="#FEFEFE"/>
<path d="M67.3399 13.5912C66.5358 13.1759 65.7914 12.6828 64.8486 12.5202C63.6441 12.3125 62.545 12.5132 61.4863 13.0133C61.0562 13.2157 60.8911 13.124 60.6945 12.7364C59.4181 10.2224 56.493 9.12546 53.8664 10.3003C53.3397 10.5356 53.0518 10.4197 52.6761 10.0546C50.4849 7.92815 47.8056 6.94365 44.7682 7.13916C41.2568 7.36582 38.5336 9.06144 36.5865 11.9354C36.3267 12.3195 36.0826 12.4579 35.6472 12.4233C33.2313 12.2347 31.0103 12.8108 28.9912 14.1224C27.6428 14.9979 26.6403 16.2125 25.7062 17.4859C25.2041 12.2122 29.9147 7.46791 35.3435 7.86067C36.4899 7.94372 37.1712 7.6565 37.8155 6.67546C40.9881 1.84813 47.7758 1.1941 51.9106 5.25321C52.9254 6.24983 53.0799 6.27751 54.3528 5.67712C56.3157 4.75145 58.6824 5.60964 59.6024 7.58037C60.2082 8.87631 60.7314 9.04933 62.0025 8.37454C63.5651 7.54404 65.4104 7.79838 66.6605 9.01473C67.9088 10.2293 68.1809 12.053 67.3417 13.5894L67.3399 13.5912Z" fill="#FEFEFE"/>
<path d="M57.2832 59.8124C58.1453 59.8124 59.0073 59.8124 59.8694 59.8141C60.0766 60.7605 60.4804 61.0945 61.4443 61.0997C62.4714 61.1049 63.4985 61.1118 64.5256 61.0962C64.9364 61.0893 64.9645 61.2121 64.7872 61.5391C64.0656 62.8593 62.9542 63.6691 61.4408 63.6777C55.1043 63.7123 48.7661 63.6846 42.4279 63.6794C42.0171 62.8662 41.5079 62.0859 41.4763 61.1343C44.4505 61.1256 47.423 61.1187 50.3972 61.11C51.4208 61.1066 51.8158 60.79 52.03 59.8141C52.8921 59.8141 53.7542 59.8141 54.6162 59.8141C54.8726 60.6498 55.2448 60.9889 55.9172 61.001C56.6213 61.0149 57.0181 60.6688 57.2832 59.8141V59.8124Z" fill="#94E6ED"/>
<path d="M78.3078 29.0383C78.3183 29.3152 78.3394 29.5937 78.3394 29.8706C78.3394 36.307 78.3446 42.7452 78.3394 49.1816C78.3376 51.3704 77.0805 52.9155 75.0333 53.2823C74.8437 53.3169 74.6436 53.303 74.4487 53.3117C74.4487 52.4656 74.4487 51.6195 74.4487 50.7735C75.4617 50.5035 75.7233 50.161 75.7233 49.0519C75.7233 41.9389 75.7233 34.8277 75.7233 27.7147C76.2536 27.6732 76.6679 27.9621 77.1104 28.1784C77.5616 28.3982 77.8267 28.8636 78.3078 29.0366V29.0383Z" fill="#94E6ED"/>
<path d="M78.3067 29.0385C77.8239 28.8654 77.5606 28.4 77.1093 28.1803C76.6669 27.964 76.2525 27.675 75.7223 27.7166C75.6995 27.6145 75.6591 27.5141 75.6573 27.4103C75.6363 26.45 75.1991 26.0227 74.1983 26.0192C72.253 26.014 70.3059 26.0036 68.3605 26.0279C67.9181 26.0331 67.8057 25.8998 67.832 25.4898C67.8671 24.9534 67.8513 24.4118 67.8355 23.8737C67.8268 23.5744 67.8619 23.4152 68.2481 23.4204C70.3691 23.4429 72.49 23.3996 74.6092 23.4464C76.5317 23.4879 78.1294 25.0209 78.305 26.9086C78.3699 27.6162 78.3735 28.3273 78.3085 29.0367L78.3067 29.0385Z" fill="#FEFEFE"/>
<path d="M41.4688 61.1342C41.5021 62.0858 42.0095 62.8644 42.4204 63.6793C39.8886 63.6845 37.3551 63.7122 34.8233 63.6845C33.2449 63.6689 31.8105 62.5962 31.3434 61.1342H41.467H41.4688Z" fill="#FEFEFE"/>
<path d="M74.4498 50.7756C74.4498 51.6217 74.4498 52.4677 74.4498 53.3138C72.378 53.3225 70.3063 53.3242 68.2363 53.3467C67.9185 53.3502 67.8219 53.2602 67.8342 52.9487C67.8623 52.2411 67.5884 51.3327 67.9378 50.8794C68.2644 50.4572 69.2441 50.7617 69.9358 50.7565C71.4405 50.7444 72.9451 50.7652 74.4481 50.7738L74.4498 50.7756Z" fill="#FEFEFE"/>
<path d="M46.6753 39.6158C46.6753 35.7349 46.6753 31.854 46.6753 27.9714C46.6753 27.8641 46.6753 27.7551 46.6753 27.6478C46.6806 26.5439 47.1581 25.9176 47.9974 25.9176C48.8366 25.9176 49.3177 26.5405 49.3177 27.6478C49.3177 35.6051 49.3177 43.5607 49.3177 51.518C49.3177 52.5666 48.9455 53.122 48.1922 53.2171C47.4548 53.3106 46.8421 52.8815 46.7192 52.16C46.6753 51.9073 46.677 51.6444 46.677 51.3865C46.6753 47.4624 46.677 43.5382 46.677 39.6124L46.6753 39.6158Z" fill="#0A1A00"/>
<path d="M57.2807 59.8116C57.0156 60.6664 56.6188 61.0124 55.9147 60.9986C55.2423 60.9865 54.87 60.6456 54.6137 59.8116C54.7436 58.924 55.2282 58.4205 55.9463 58.4205C56.6697 58.4205 57.1472 58.9206 57.2807 59.8099V59.8116Z" fill="#0A1A00"/>
<path d="M38.8065 39.5229C38.8065 43.5561 38.8083 47.5892 38.8065 51.6224C38.8065 52.5654 38.4185 53.1138 37.7127 53.2176C36.9525 53.3301 36.3169 52.8803 36.2028 52.1293C36.1641 51.875 36.1677 51.6137 36.1677 51.3559C36.1677 43.5059 36.1659 35.6541 36.1677 27.8041C36.1677 27.503 36.1677 27.1968 36.2291 26.9044C36.345 26.342 36.877 25.9354 37.4564 25.9199C38.0533 25.9043 38.6222 26.3247 38.7451 26.9113C38.8013 27.1829 38.8048 27.4684 38.8048 27.747C38.8083 31.6729 38.8065 35.597 38.8065 39.5229Z" fill="#0C0C0C"/>
</svg>
