<svg width="50" height="48" viewBox="0 0 50 48" fill="none" xmlns="http://www.w3.org/2000/svg">
<g id="Gpay">
<g id="Rectangle">
<path fill-rule="evenodd" clip-rule="evenodd" d="M0.5 4C0.5 1.79086 2.29086 0 4.5 0H45.5C47.7091 0 49.5 1.79086 49.5 4V44C49.5 46.2091 47.7091 48 45.5 48H4.5C2.29086 48 0.5 46.2091 0.5 44V4Z" fill="white"/>
<path d="M1 4C1 2.067 2.567 0.5 4.5 0.5H45.5C47.433 0.5 49 2.067 49 4V44C49 45.933 47.433 47.5 45.5 47.5H4.5C2.567 47.5 1 45.933 1 44V4Z" stroke="#E4E4E4" stroke-opacity="0.6"/>
</g>
<g id="Gpay_2">
<path id="Vector" d="M23.8911 22.8925V27.585H22.377V16.0007H26.3924C27.3609 15.9824 28.2921 16.3422 28.9973 17.0076C29.7026 17.6266 30.0974 18.5226 30.0788 19.4466C30.0974 20.3797 29.7026 21.2756 28.9973 21.9038C28.2921 22.5595 27.4273 22.8925 26.4023 22.8925H23.8917H23.8911ZM23.8911 17.4235V21.4696H26.4302C26.9946 21.4879 27.5397 21.2665 27.9252 20.8689C28.7242 20.1114 28.7341 18.8641 27.963 18.0792L27.9252 18.042C27.5397 17.6358 26.9946 17.4138 26.4302 17.4321L23.8911 17.423V17.4235ZM33.5672 19.4002C34.6859 19.4002 35.57 19.696 36.2187 20.2779C36.8675 20.8689 37.1872 21.6727 37.1872 22.6979V27.5753H35.7388V26.4762H35.673C35.0429 27.3813 34.2154 27.8345 33.1718 27.8345C32.2877 27.8345 31.5359 27.5759 30.943 27.0587C30.3601 26.5781 30.031 25.8669 30.0497 25.1186C30.0497 24.2965 30.3694 23.65 30.9995 23.1602C31.6296 22.6705 32.4758 22.4302 33.5288 22.4302C34.4314 22.4302 35.1646 22.5967 35.7482 22.9108V22.5692C35.7482 22.0612 35.5222 21.5806 35.1274 21.2573C34.7232 20.9061 34.206 20.7121 33.6697 20.7121C32.8235 20.7121 32.1555 21.0634 31.6576 21.7654L30.3222 20.9432C31.0461 19.918 32.1276 19.4008 33.5666 19.4008L33.5672 19.4002ZM31.6116 25.1552C31.6116 25.5431 31.7997 25.9035 32.1101 26.125C32.4485 26.3836 32.8625 26.522 33.2853 26.5129C33.9248 26.5129 34.5357 26.2634 34.9876 25.82C35.4861 25.3583 35.74 24.8131 35.74 24.1849C35.27 23.8153 34.6114 23.6305 33.7652 23.6305C33.1537 23.6305 32.6366 23.7781 32.2231 24.0647C31.8189 24.3605 31.6116 24.7204 31.6116 25.1546V25.1552ZM45.4999 19.6588L40.4409 31.0767H38.8801L40.7606 27.0861L37.4318 19.668H39.0776L41.4752 25.3583H41.513L43.8542 19.668L45.4999 19.6588Z" fill="#60646A"/>
<g id="Group 97">
<path id="Vector_2" d="M17.7709 22.8002C17.7709 22.3476 17.7331 21.8951 17.658 21.4517H11.2734V24.0108H14.9313C14.7811 24.8329 14.2919 25.5721 13.5773 26.0338V27.6964H15.7589C17.0377 26.5418 17.7709 24.8329 17.7709 22.8002Z" fill="#517CBE"/>
<path id="Vector_3" d="M11.2727 29.3039C13.0967 29.3039 14.6388 28.7129 15.7581 27.6968L13.5766 26.0342C12.9651 26.4404 12.1847 26.6716 11.2727 26.6716C9.50465 26.6716 8.00971 25.4981 7.47393 23.9282H5.22656V25.6463C6.37383 27.8816 8.71496 29.3045 11.2727 29.3045V29.3039Z" fill="#32A853"/>
<path id="Vector_4" d="M7.47373 23.9273C7.19186 23.1051 7.19186 22.2092 7.47373 21.3779V19.6689H5.22636C4.25788 21.5444 4.25788 23.7613 5.22636 25.6368L7.47373 23.9278V23.9273Z" fill="#FBBC0C"/>
<path id="Vector_5" d="M11.2727 18.6338C12.2412 18.6155 13.1724 18.9754 13.8678 19.6316L15.7954 17.7378C14.5736 16.6016 12.9564 15.9826 11.2727 16.0009C8.71554 16.0009 6.37383 17.4238 5.22656 19.6688L7.47393 21.3869C8.00971 19.8072 9.50523 18.6338 11.2727 18.6338Z" fill="#E84436"/>
</g>
</g>
</g>
</svg>
