<svg width="150" height="150" viewBox="0 0 150 150" fill="none" xmlns="http://www.w3.org/2000/svg">
<rect width="150" height="150" rx="10" fill="black"/>
<path d="M59.2812 60.1406C59.2812 59.6719 59.2083 59.2552 59.0625 58.8906C58.9271 58.526 58.6823 58.1927 58.3281 57.8906C57.974 57.5885 57.474 57.2969 56.8281 57.0156C56.1927 56.724 55.3802 56.4271 54.3906 56.125C53.3073 55.7917 52.3073 55.4219 51.3906 55.0156C50.4844 54.599 49.6927 54.1198 49.0156 53.5781C48.3385 53.026 47.8125 52.3958 47.4375 51.6875C47.0625 50.9688 46.875 50.1406 46.875 49.2031C46.875 48.276 47.0677 47.4323 47.4531 46.6719C47.849 45.9115 48.4062 45.2552 49.125 44.7031C49.8542 44.1406 50.7135 43.7083 51.7031 43.4062C52.6927 43.0938 53.7865 42.9375 54.9844 42.9375C56.6719 42.9375 58.125 43.25 59.3438 43.875C60.5729 44.5 61.5156 45.3385 62.1719 46.3906C62.8385 47.4427 63.1719 48.6042 63.1719 49.875H59.2812C59.2812 49.125 59.1198 48.4635 58.7969 47.8906C58.4844 47.3073 58.0052 46.849 57.3594 46.5156C56.724 46.1823 55.9167 46.0156 54.9375 46.0156C54.0104 46.0156 53.2396 46.1562 52.625 46.4375C52.0104 46.7188 51.5521 47.099 51.25 47.5781C50.9479 48.0573 50.7969 48.599 50.7969 49.2031C50.7969 49.6302 50.8958 50.0208 51.0938 50.375C51.2917 50.7188 51.5938 51.0417 52 51.3438C52.4062 51.6354 52.9167 51.9115 53.5312 52.1719C54.1458 52.4323 54.8698 52.6823 55.7031 52.9219C56.9635 53.2969 58.0625 53.7135 59 54.1719C59.9375 54.6198 60.7188 55.1302 61.3438 55.7031C61.9688 56.276 62.4375 56.9271 62.75 57.6562C63.0625 58.375 63.2188 59.1927 63.2188 60.1094C63.2188 61.0677 63.026 61.9323 62.6406 62.7031C62.2552 63.4635 61.7031 64.1146 60.9844 64.6562C60.276 65.1875 59.4219 65.599 58.4219 65.8906C57.4323 66.1719 56.3281 66.3125 55.1094 66.3125C54.0156 66.3125 52.9375 66.1667 51.875 65.875C50.8229 65.5833 49.8646 65.1406 49 64.5469C48.1354 63.9427 47.4479 63.1927 46.9375 62.2969C46.4271 61.3906 46.1719 60.3333 46.1719 59.125H50.0938C50.0938 59.8646 50.2188 60.4948 50.4688 61.0156C50.7292 61.5365 51.0885 61.9635 51.5469 62.2969C52.0052 62.6198 52.5365 62.8594 53.1406 63.0156C53.7552 63.1719 54.4115 63.25 55.1094 63.25C56.026 63.25 56.7917 63.1198 57.4062 62.8594C58.0312 62.599 58.5 62.2344 58.8125 61.7656C59.125 61.2969 59.2812 60.7552 59.2812 60.1406ZM73.2188 63.3125C73.8333 63.3125 74.3854 63.1927 74.875 62.9531C75.375 62.7031 75.776 62.3594 76.0781 61.9219C76.3906 61.4844 76.5625 60.9792 76.5938 60.4062H80.1406C80.1198 61.5 79.7969 62.4948 79.1719 63.3906C78.5469 64.2865 77.7188 65 76.6875 65.5312C75.6562 66.0521 74.5156 66.3125 73.2656 66.3125C71.974 66.3125 70.849 66.0938 69.8906 65.6562C68.9323 65.2083 68.1354 64.5938 67.5 63.8125C66.8646 63.0312 66.3854 62.1302 66.0625 61.1094C65.75 60.0885 65.5938 58.9948 65.5938 57.8281V57.2812C65.5938 56.1146 65.75 55.0208 66.0625 54C66.3854 52.9688 66.8646 52.0625 67.5 51.2812C68.1354 50.5 68.9323 49.8906 69.8906 49.4531C70.849 49.0052 71.9688 48.7812 73.25 48.7812C74.6042 48.7812 75.7917 49.0521 76.8125 49.5938C77.8333 50.125 78.6354 50.8698 79.2188 51.8281C79.8125 52.776 80.1198 53.8802 80.1406 55.1406H76.5938C76.5625 54.5156 76.4062 53.9531 76.125 53.4531C75.8542 52.9427 75.4688 52.5365 74.9688 52.2344C74.4792 51.9323 73.8906 51.7812 73.2031 51.7812C72.4427 51.7812 71.8125 51.9375 71.3125 52.25C70.8125 52.5521 70.4219 52.9688 70.1406 53.5C69.8594 54.0208 69.6562 54.6094 69.5312 55.2656C69.4167 55.9115 69.3594 56.5833 69.3594 57.2812V57.8281C69.3594 58.526 69.4167 59.2031 69.5312 59.8594C69.6458 60.5156 69.8438 61.1042 70.125 61.625C70.4167 62.1354 70.8125 62.5469 71.3125 62.8594C71.8125 63.1615 72.4479 63.3125 73.2188 63.3125ZM92.5625 62.6094V54.5469C92.5625 53.9427 92.4531 53.4219 92.2344 52.9844C92.0156 52.5469 91.6823 52.2083 91.2344 51.9688C90.7969 51.7292 90.2448 51.6094 89.5781 51.6094C88.9635 51.6094 88.4323 51.7135 87.9844 51.9219C87.5365 52.1302 87.1875 52.4115 86.9375 52.7656C86.6875 53.1198 86.5625 53.5208 86.5625 53.9688H82.8125C82.8125 53.3021 82.974 52.6562 83.2969 52.0312C83.6198 51.4062 84.0885 50.849 84.7031 50.3594C85.3177 49.8698 86.0521 49.4844 86.9062 49.2031C87.7604 48.9219 88.7188 48.7812 89.7812 48.7812C91.0521 48.7812 92.1771 48.9948 93.1562 49.4219C94.1458 49.849 94.9219 50.4948 95.4844 51.3594C96.0573 52.2135 96.3438 53.2865 96.3438 54.5781V62.0938C96.3438 62.8646 96.3958 63.5573 96.5 64.1719C96.6146 64.776 96.776 65.3021 96.9844 65.75V66H93.125C92.9479 65.5938 92.8073 65.0781 92.7031 64.4531C92.6094 63.8177 92.5625 63.2031 92.5625 62.6094ZM93.1094 55.7188L93.1406 58.0469H90.4375C89.7396 58.0469 89.125 58.1146 88.5938 58.25C88.0625 58.375 87.6198 58.5625 87.2656 58.8125C86.9115 59.0625 86.6458 59.3646 86.4688 59.7188C86.2917 60.0729 86.2031 60.474 86.2031 60.9219C86.2031 61.3698 86.3073 61.7812 86.5156 62.1562C86.724 62.5208 87.026 62.8073 87.4219 63.0156C87.8281 63.224 88.3177 63.3281 88.8906 63.3281C89.6615 63.3281 90.3333 63.1719 90.9062 62.8594C91.4896 62.5365 91.9479 62.1458 92.2812 61.6875C92.6146 61.2188 92.7917 60.776 92.8125 60.3594L94.0312 62.0312C93.9062 62.4583 93.6927 62.9167 93.3906 63.4062C93.0885 63.8958 92.6927 64.3646 92.2031 64.8125C91.724 65.25 91.1458 65.6094 90.4688 65.8906C89.8021 66.1719 89.0312 66.3125 88.1562 66.3125C87.0521 66.3125 86.0677 66.0938 85.2031 65.6562C84.3385 65.2083 83.6615 64.6094 83.1719 63.8594C82.6823 63.099 82.4375 62.2396 82.4375 61.2812C82.4375 60.3854 82.6042 59.5938 82.9375 58.9062C83.2812 58.2083 83.7812 57.625 84.4375 57.1562C85.1042 56.6875 85.9167 56.3333 86.875 56.0938C87.8333 55.8438 88.9271 55.7188 90.1562 55.7188H93.1094ZM104.016 52.7031V66H100.25V49.0938H103.797L104.016 52.7031ZM103.344 56.9219L102.125 56.9062C102.135 55.7083 102.302 54.6094 102.625 53.6094C102.958 52.6094 103.417 51.75 104 51.0312C104.594 50.3125 105.302 49.7604 106.125 49.375C106.948 48.9792 107.865 48.7812 108.875 48.7812C109.688 48.7812 110.422 48.8958 111.078 49.125C111.745 49.3438 112.312 49.7031 112.781 50.2031C113.26 50.7031 113.625 51.3542 113.875 52.1562C114.125 52.9479 114.25 53.9219 114.25 55.0781V66H110.469V55.0625C110.469 54.25 110.349 53.6094 110.109 53.1406C109.88 52.6615 109.542 52.3229 109.094 52.125C108.656 51.9167 108.109 51.8125 107.453 51.8125C106.807 51.8125 106.229 51.9479 105.719 52.2188C105.208 52.4896 104.776 52.8594 104.422 53.3281C104.078 53.7969 103.812 54.3385 103.625 54.9531C103.438 55.5677 103.344 56.224 103.344 56.9219Z" fill="white"/>
<path d="M58.6719 98C58.6719 97.6146 58.6146 97.2708 58.5 96.9688C58.3854 96.6562 58.1771 96.3698 57.875 96.1094C57.5729 95.849 57.1458 95.5885 56.5938 95.3281C56.0417 95.0573 55.3177 94.7812 54.4219 94.5C53.401 94.1667 52.4271 93.7917 51.5 93.375C50.5833 92.9479 49.7656 92.4531 49.0469 91.8906C48.3281 91.3281 47.7604 90.6719 47.3438 89.9219C46.9375 89.1719 46.7344 88.2969 46.7344 87.2969C46.7344 86.3281 46.9479 85.4531 47.375 84.6719C47.8021 83.8906 48.401 83.224 49.1719 82.6719C49.9427 82.1094 50.849 81.6823 51.8906 81.3906C52.9323 81.0885 54.0781 80.9375 55.3281 80.9375C56.9948 80.9375 58.4583 81.2344 59.7188 81.8281C60.9896 82.4115 61.9792 83.2344 62.6875 84.2969C63.3958 85.349 63.75 86.5729 63.75 87.9688H58.6875C58.6875 87.3542 58.5573 86.8125 58.2969 86.3438C58.0469 85.8646 57.6615 85.4896 57.1406 85.2188C56.6302 84.9479 55.9896 84.8125 55.2188 84.8125C54.4688 84.8125 53.8385 84.9271 53.3281 85.1562C52.8281 85.375 52.4479 85.6771 52.1875 86.0625C51.9375 86.4479 51.8125 86.8698 51.8125 87.3281C51.8125 87.6927 51.9062 88.026 52.0938 88.3281C52.2917 88.6198 52.5729 88.8958 52.9375 89.1562C53.3125 89.4062 53.7708 89.6458 54.3125 89.875C54.8542 90.1042 55.474 90.3229 56.1719 90.5312C57.3906 90.9167 58.4688 91.3438 59.4062 91.8125C60.3542 92.2812 61.151 92.8125 61.7969 93.4062C62.4427 94 62.9271 94.6719 63.25 95.4219C63.5833 96.1719 63.75 97.0208 63.75 97.9688C63.75 98.9792 63.5521 99.875 63.1562 100.656C62.7708 101.438 62.2083 102.104 61.4688 102.656C60.7396 103.198 59.8646 103.609 58.8438 103.891C57.8229 104.172 56.6823 104.312 55.4219 104.312C54.276 104.312 53.1458 104.167 52.0312 103.875C50.9167 103.573 49.9062 103.115 49 102.5C48.1042 101.885 47.3854 101.104 46.8438 100.156C46.3125 99.1979 46.0469 98.0625 46.0469 96.75H51.1406C51.1406 97.4375 51.2396 98.0208 51.4375 98.5C51.6354 98.9688 51.9167 99.349 52.2812 99.6406C52.6562 99.9323 53.1094 100.141 53.6406 100.266C54.1719 100.391 54.7656 100.453 55.4219 100.453C56.1823 100.453 56.7969 100.349 57.2656 100.141C57.7448 99.9219 58.099 99.625 58.3281 99.25C58.5573 98.875 58.6719 98.4583 58.6719 98ZM71.6406 87.0938V104H66.75V87.0938H71.6406ZM66.4531 82.7188C66.4531 82.0104 66.7031 81.4323 67.2031 80.9844C67.7031 80.526 68.3594 80.2969 69.1719 80.2969C69.9844 80.2969 70.6406 80.526 71.1406 80.9844C71.651 81.4323 71.9062 82.0104 71.9062 82.7188C71.9062 83.4167 71.651 83.9948 71.1406 84.4531C70.6406 84.901 69.9844 85.125 69.1719 85.125C68.3594 85.125 67.7031 84.901 67.2031 84.4531C66.7031 83.9948 66.4531 83.4167 66.4531 82.7188ZM80.0469 90.3438V110.5H75.1719V87.0938H79.7188L80.0469 90.3438ZM90.5938 95.3594V95.6875C90.5938 96.9167 90.4531 98.0573 90.1719 99.1094C89.8906 100.151 89.4688 101.062 88.9062 101.844C88.3542 102.625 87.6719 103.234 86.8594 103.672C86.0469 104.099 85.1042 104.312 84.0312 104.312C83.0104 104.312 82.125 104.099 81.375 103.672C80.6354 103.234 80.0104 102.63 79.5 101.859C79 101.078 78.5938 100.188 78.2812 99.1875C77.9792 98.1771 77.7448 97.099 77.5781 95.9531V95.3125C77.7448 94.0938 77.9844 92.9635 78.2969 91.9219C78.6094 90.8802 79.0156 89.9792 79.5156 89.2188C80.0156 88.4479 80.6354 87.849 81.375 87.4219C82.1146 86.9948 82.9948 86.7812 84.0156 86.7812C85.0781 86.7812 86.0208 86.9844 86.8438 87.3906C87.6667 87.7969 88.3542 88.3802 88.9062 89.1406C89.4688 89.8906 89.8906 90.7917 90.1719 91.8438C90.4531 92.8958 90.5938 94.0677 90.5938 95.3594ZM85.7031 95.6875V95.3594C85.7031 94.6719 85.651 94.0417 85.5469 93.4688C85.4427 92.8854 85.276 92.3802 85.0469 91.9531C84.8177 91.5156 84.5156 91.1771 84.1406 90.9375C83.7656 90.6979 83.3073 90.5781 82.7656 90.5781C82.1823 90.5781 81.6875 90.6719 81.2812 90.8594C80.875 91.0469 80.5469 91.3229 80.2969 91.6875C80.0469 92.0417 79.8646 92.4792 79.75 93C79.6458 93.5208 79.5885 94.1146 79.5781 94.7812V96.5C79.5885 97.2812 79.6979 97.9792 79.9062 98.5938C80.125 99.1979 80.4635 99.6719 80.9219 100.016C81.3906 100.349 82.0156 100.516 82.7969 100.516C83.349 100.516 83.8073 100.396 84.1719 100.156C84.5469 99.9062 84.8438 99.5573 85.0625 99.1094C85.2917 98.6615 85.4531 98.1458 85.5469 97.5625C85.651 96.9792 85.7031 96.3542 85.7031 95.6875Z" fill="#06C167"/>
</svg>
