<svg width="49" height="48" viewBox="0 0 49 48" fill="none" xmlns="http://www.w3.org/2000/svg">
<g id="Paypal">
<g id="Rectangle">
<path fill-rule="evenodd" clip-rule="evenodd" d="M0.5 4C0.5 1.79086 2.29086 0 4.5 0H44.5C46.7091 0 48.5 1.79086 48.5 4V44C48.5 46.2091 46.7091 48 44.5 48H4.5C2.29086 48 0.5 46.2091 0.5 44V4Z" fill="white"/>
<path d="M1 4C1 2.067 2.567 0.5 4.5 0.5H44.5C46.433 0.5 48 2.067 48 4V44C48 45.933 46.433 47.5 44.5 47.5H4.5C2.567 47.5 1 45.933 1 44V4Z" stroke="#E4E4E4" stroke-opacity="0.6"/>
</g>
<g id="PayPal">
<path id="Vector" d="M20.8501 15.4049L20.8543 15.4066C20.9419 15.0336 21.2601 14.7592 21.6584 14.7592H33.0007C33.015 14.7592 33.0293 14.7533 33.0436 14.7541C32.802 10.7306 29.4267 8.86572 26.4489 8.86572H15.1065C14.7075 8.86572 14.3892 9.14777 14.3025 9.51989L14.2983 9.51821L9.34025 32.282L9.35119 32.2828C9.33941 32.3367 9.31836 32.3881 9.31836 32.4462C9.31836 32.9117 9.6947 33.2805 10.1603 33.2805H16.9554L20.8501 15.4049Z" fill="#1565C0"/>
<path id="Vector_2" d="M33.0436 14.754C33.0882 15.4915 33.0394 16.2939 32.8508 17.1804C31.7723 22.2277 27.8734 24.8545 23.0551 24.8545C23.0551 24.8545 20.1336 24.8545 19.4239 24.8545C18.9852 24.8545 18.7781 25.1121 18.683 25.3092L17.218 32.0858L16.9613 33.2889H16.9562L15.8929 38.1686L15.9038 38.1695C15.892 38.2233 15.871 38.2747 15.871 38.3328C15.871 38.7984 16.2473 39.1747 16.7129 39.1747H22.8867L22.8976 39.1663C23.295 39.1604 23.6107 38.8767 23.6932 38.5029L23.7084 38.4902L25.2339 31.4046C25.2339 31.4046 25.34 30.7286 26.0506 30.7286C26.7612 30.7286 29.5681 30.7286 29.5681 30.7286C34.3864 30.7286 38.3249 28.1136 39.4043 23.0654C40.6183 17.3741 36.5586 14.7751 33.0436 14.754Z" fill="#039BE5"/>
<path id="Vector_3" d="M21.6583 14.7592C21.2592 14.7592 20.941 15.0336 20.8543 15.4066L20.8501 15.4049L18.6821 25.3101C18.7773 25.1131 18.9844 24.8554 19.423 24.8554C20.1336 24.8554 22.9885 24.8554 22.9885 24.8554C27.8068 24.8554 31.7714 22.2286 32.8499 17.1813C33.0394 16.2948 33.0873 15.4925 33.0427 14.7549C33.0293 14.7533 33.0141 14.7592 33.0006 14.7592H21.6583Z" fill="#283593"/>
</g>
</g>
</svg>
